<mxfile host="app.diagrams.net" agent="Mozilla/5.0 (Windows NT 10.0; Win64; x64) AppleWebKit/537.36 (KHTML, like Gecko) Chrome/131.0.0.0 Safari/537.36" version="24.9.2">
  <diagram name="Page-1" id="ujXdSxkZEV0neX2NwjxN">
    <mxGraphModel dx="1259" dy="655" grid="1" gridSize="10" guides="1" tooltips="1" connect="1" arrows="1" fold="1" page="1" pageScale="1" pageWidth="850" pageHeight="1100" math="0" shadow="0">
      <root>
        <mxCell id="0" />
        <mxCell id="1" parent="0" />
        <mxCell id="mJKC-r3p6AU6EGSgcZ0A-1" value="" style="points=[[0,0],[0.25,0],[0.5,0],[0.75,0],[1,0],[1,0.25],[1,0.5],[1,0.75],[1,1],[0.75,1],[0.5,1],[0.25,1],[0,1],[0,0.75],[0,0.5],[0,0.25]];outlineConnect=0;gradientColor=none;html=1;whiteSpace=wrap;fontSize=12;fontStyle=0;container=1;pointerEvents=0;collapsible=0;recursiveResize=0;shape=mxgraph.aws4.group;grIcon=mxgraph.aws4.group_aws_cloud_alt;strokeColor=#232F3E;fillColor=none;verticalAlign=top;align=left;spacingLeft=30;fontColor=#232F3E;dashed=0;" parent="1" vertex="1">
          <mxGeometry x="160" y="10" width="760" height="1000" as="geometry" />
        </mxCell>
        <mxCell id="mJKC-r3p6AU6EGSgcZ0A-2" value="&lt;font style=&quot;font-size: 14px;&quot;&gt;AWS Cognito&lt;/font&gt;&lt;div&gt;&lt;br&gt;&lt;/div&gt;" style="outlineConnect=0;dashed=0;verticalLabelPosition=bottom;verticalAlign=top;align=center;html=1;shape=mxgraph.aws3.cognito;fillColor=#AD688B;gradientColor=none;" parent="mJKC-r3p6AU6EGSgcZ0A-1" vertex="1">
          <mxGeometry x="210" y="520" width="80" height="80" as="geometry" />
        </mxCell>
        <mxCell id="mJKC-r3p6AU6EGSgcZ0A-3" value="&lt;font style=&quot;font-size: 14px;&quot;&gt;AWS IAM&lt;/font&gt;&lt;div&gt;&lt;br&gt;&lt;/div&gt;" style="outlineConnect=0;dashed=0;verticalLabelPosition=bottom;verticalAlign=top;align=center;html=1;shape=mxgraph.aws3.iam;fillColor=#759C3E;gradientColor=none;" parent="mJKC-r3p6AU6EGSgcZ0A-1" vertex="1">
          <mxGeometry x="480" y="520" width="80" height="80" as="geometry" />
        </mxCell>
        <mxCell id="mJKC-r3p6AU6EGSgcZ0A-4" value="&lt;font style=&quot;font-size: 14px;&quot;&gt;NLP &amp;amp; Machine Learning&amp;nbsp;&lt;span style=&quot;background-color: initial;&quot;&gt;AWS&amp;nbsp;&amp;nbsp;&lt;/span&gt;&lt;/font&gt;&lt;div&gt;&lt;span style=&quot;background-color: initial;&quot;&gt;&lt;font size=&quot;3&quot;&gt;(ML Model Training &amp;amp; Deployment)&lt;/font&gt;&lt;/span&gt;&lt;/div&gt;" style="sketch=0;points=[[0,0,0],[0.25,0,0],[0.5,0,0],[0.75,0,0],[1,0,0],[0,1,0],[0.25,1,0],[0.5,1,0],[0.75,1,0],[1,1,0],[0,0.25,0],[0,0.5,0],[0,0.75,0],[1,0.25,0],[1,0.5,0],[1,0.75,0]];outlineConnect=0;fontColor=#232F3E;fillColor=#01A88D;strokeColor=#ffffff;dashed=0;verticalLabelPosition=bottom;verticalAlign=top;align=center;html=1;fontSize=12;fontStyle=0;aspect=fixed;shape=mxgraph.aws4.resourceIcon;resIcon=mxgraph.aws4.sagemaker;" parent="mJKC-r3p6AU6EGSgcZ0A-1" vertex="1">
          <mxGeometry x="335" y="870" width="78" height="78" as="geometry" />
        </mxCell>
        <mxCell id="mJKC-r3p6AU6EGSgcZ0A-38" value="" style="edgeStyle=orthogonalEdgeStyle;rounded=0;orthogonalLoop=1;jettySize=auto;html=1;entryX=0.484;entryY=-0.018;entryDx=0;entryDy=0;entryPerimeter=0;" parent="mJKC-r3p6AU6EGSgcZ0A-1" source="mJKC-r3p6AU6EGSgcZ0A-6" target="mJKC-r3p6AU6EGSgcZ0A-17" edge="1">
          <mxGeometry relative="1" as="geometry">
            <mxPoint x="373" y="670" as="targetPoint" />
            <Array as="points" />
          </mxGeometry>
        </mxCell>
        <mxCell id="mJKC-r3p6AU6EGSgcZ0A-41" style="edgeStyle=orthogonalEdgeStyle;rounded=0;orthogonalLoop=1;jettySize=auto;html=1;" parent="mJKC-r3p6AU6EGSgcZ0A-1" source="mJKC-r3p6AU6EGSgcZ0A-6" target="mJKC-r3p6AU6EGSgcZ0A-7" edge="1">
          <mxGeometry relative="1" as="geometry">
            <Array as="points">
              <mxPoint x="373" y="430" />
              <mxPoint x="373" y="430" />
            </Array>
          </mxGeometry>
        </mxCell>
        <mxCell id="mJKC-r3p6AU6EGSgcZ0A-6" value="&lt;font style=&quot;font-size: 14px;&quot;&gt;&lt;b&gt;Security group&lt;/b&gt;&lt;/font&gt;" style="fillColor=none;strokeColor=#DD3522;verticalAlign=top;fontStyle=0;fontColor=#DD3522;whiteSpace=wrap;html=1;" parent="mJKC-r3p6AU6EGSgcZ0A-1" vertex="1">
          <mxGeometry x="147" y="480" width="452.5" height="140" as="geometry" />
        </mxCell>
        <mxCell id="mJKC-r3p6AU6EGSgcZ0A-7" value="" style="points=[[0,0],[0.25,0],[0.5,0],[0.75,0],[1,0],[1,0.25],[1,0.5],[1,0.75],[1,1],[0.75,1],[0.5,1],[0.25,1],[0,1],[0,0.75],[0,0.5],[0,0.25]];outlineConnect=0;gradientColor=none;html=1;whiteSpace=wrap;fontSize=12;fontStyle=0;container=1;pointerEvents=0;collapsible=0;recursiveResize=0;shape=mxgraph.aws4.group;grIcon=mxgraph.aws4.group_aws_cloud_alt;strokeColor=#232F3E;fillColor=none;verticalAlign=top;align=left;spacingLeft=30;fontColor=#232F3E;dashed=0;" parent="mJKC-r3p6AU6EGSgcZ0A-1" vertex="1">
          <mxGeometry x="80" y="240" width="570" height="160" as="geometry" />
        </mxCell>
        <mxCell id="mJKC-r3p6AU6EGSgcZ0A-8" value="&lt;font style=&quot;font-size: 14px;&quot;&gt;AWS Lambda&lt;/font&gt;&lt;div&gt;&lt;br&gt;&lt;/div&gt;" style="sketch=0;points=[[0,0,0],[0.25,0,0],[0.5,0,0],[0.75,0,0],[1,0,0],[0,1,0],[0.25,1,0],[0.5,1,0],[0.75,1,0],[1,1,0],[0,0.25,0],[0,0.5,0],[0,0.75,0],[1,0.25,0],[1,0.5,0],[1,0.75,0]];outlineConnect=0;fontColor=#232F3E;fillColor=#ED7100;strokeColor=#ffffff;dashed=0;verticalLabelPosition=bottom;verticalAlign=top;align=center;html=1;fontSize=12;fontStyle=0;aspect=fixed;shape=mxgraph.aws4.resourceIcon;resIcon=mxgraph.aws4.lambda;" parent="mJKC-r3p6AU6EGSgcZ0A-7" vertex="1">
          <mxGeometry x="60" y="40" width="68" height="68" as="geometry" />
        </mxCell>
        <mxCell id="mJKC-r3p6AU6EGSgcZ0A-9" value="(Serverless Computing)" style="text;whiteSpace=wrap;html=1;" parent="mJKC-r3p6AU6EGSgcZ0A-7" vertex="1">
          <mxGeometry x="40" y="20" width="160" height="40" as="geometry" />
        </mxCell>
        <mxCell id="mJKC-r3p6AU6EGSgcZ0A-10" value="&lt;font style=&quot;font-size: 14px;&quot;&gt;API Gateway&lt;/font&gt;&lt;div&gt;&lt;br&gt;&lt;/div&gt;" style="outlineConnect=0;dashed=0;verticalLabelPosition=bottom;verticalAlign=top;align=center;html=1;shape=mxgraph.aws3.api_gateway;fillColor=#D9A741;gradientColor=none;" parent="mJKC-r3p6AU6EGSgcZ0A-7" vertex="1">
          <mxGeometry x="255" y="40" width="75" height="70" as="geometry" />
        </mxCell>
        <mxCell id="mJKC-r3p6AU6EGSgcZ0A-11" value="(Endpoint Management)" style="text;whiteSpace=wrap;html=1;" parent="mJKC-r3p6AU6EGSgcZ0A-7" vertex="1">
          <mxGeometry x="230" y="20" width="160" height="40" as="geometry" />
        </mxCell>
        <mxCell id="mJKC-r3p6AU6EGSgcZ0A-12" value="&lt;font style=&quot;font-size: 14px;&quot;&gt;AWS S3&lt;/font&gt;&lt;div&gt;&lt;br&gt;&lt;/div&gt;" style="sketch=0;outlineConnect=0;fontColor=#232F3E;gradientColor=none;fillColor=#7AA116;strokeColor=none;dashed=0;verticalLabelPosition=bottom;verticalAlign=top;align=center;html=1;fontSize=12;fontStyle=0;aspect=fixed;pointerEvents=1;shape=mxgraph.aws4.file_cache_s3_linked_datasets;" parent="mJKC-r3p6AU6EGSgcZ0A-7" vertex="1">
          <mxGeometry x="440" y="40" width="70" height="70" as="geometry" />
        </mxCell>
        <mxCell id="mJKC-r3p6AU6EGSgcZ0A-13" value="(Caching temporary results)" style="text;whiteSpace=wrap;html=1;" parent="mJKC-r3p6AU6EGSgcZ0A-7" vertex="1">
          <mxGeometry x="400" y="20" width="160" height="40" as="geometry" />
        </mxCell>
        <mxCell id="mJKC-r3p6AU6EGSgcZ0A-15" value="&lt;font style=&quot;font-size: 14px;&quot;&gt;Authentication&lt;/font&gt;" style="text;whiteSpace=wrap;html=1;" parent="mJKC-r3p6AU6EGSgcZ0A-1" vertex="1">
          <mxGeometry x="200" y="480" width="120" height="40" as="geometry" />
        </mxCell>
        <mxCell id="mJKC-r3p6AU6EGSgcZ0A-16" value="Access Control" style="text;whiteSpace=wrap;html=1;" parent="mJKC-r3p6AU6EGSgcZ0A-1" vertex="1">
          <mxGeometry x="479.5" y="490" width="120" height="40" as="geometry" />
        </mxCell>
        <mxCell id="mJKC-r3p6AU6EGSgcZ0A-17" value="&lt;font style=&quot;font-size: 14px;&quot;&gt;&lt;b&gt;Analytics layer&lt;/b&gt;&lt;/font&gt;" style="fillColor=none;strokeColor=#DD3522;verticalAlign=top;fontStyle=0;fontColor=#DD3522;whiteSpace=wrap;html=1;" parent="mJKC-r3p6AU6EGSgcZ0A-1" vertex="1">
          <mxGeometry x="153.75" y="680" width="452.5" height="140" as="geometry" />
        </mxCell>
        <mxCell id="mJKC-r3p6AU6EGSgcZ0A-29" value="Athena" style="outlineConnect=0;dashed=0;verticalLabelPosition=bottom;verticalAlign=top;align=center;html=1;shape=mxgraph.aws3.athena;fillColor=#F58534;gradientColor=none;" parent="mJKC-r3p6AU6EGSgcZ0A-1" vertex="1">
          <mxGeometry x="170" y="721" width="76.5" height="76.5" as="geometry" />
        </mxCell>
        <mxCell id="mJKC-r3p6AU6EGSgcZ0A-32" value="Quicksights" style="sketch=0;points=[[0,0,0],[0.25,0,0],[0.5,0,0],[0.75,0,0],[1,0,0],[0,1,0],[0.25,1,0],[0.5,1,0],[0.75,1,0],[1,1,0],[0,0.25,0],[0,0.5,0],[0,0.75,0],[1,0.25,0],[1,0.5,0],[1,0.75,0]];outlineConnect=0;fontColor=#232F3E;fillColor=#8C4FFF;strokeColor=#ffffff;dashed=0;verticalLabelPosition=bottom;verticalAlign=top;align=center;html=1;fontSize=12;fontStyle=0;aspect=fixed;shape=mxgraph.aws4.resourceIcon;resIcon=mxgraph.aws4.quicksight;" parent="mJKC-r3p6AU6EGSgcZ0A-1" vertex="1">
          <mxGeometry x="482" y="719.5" width="78" height="78" as="geometry" />
        </mxCell>
        <mxCell id="mJKC-r3p6AU6EGSgcZ0A-35" style="edgeStyle=orthogonalEdgeStyle;rounded=0;orthogonalLoop=1;jettySize=auto;html=1;entryX=0.486;entryY=1.021;entryDx=0;entryDy=0;entryPerimeter=0;" parent="mJKC-r3p6AU6EGSgcZ0A-1" source="mJKC-r3p6AU6EGSgcZ0A-4" target="mJKC-r3p6AU6EGSgcZ0A-17" edge="1">
          <mxGeometry relative="1" as="geometry">
            <Array as="points">
              <mxPoint x="374" y="830" />
              <mxPoint x="374" y="830" />
            </Array>
          </mxGeometry>
        </mxCell>
        <mxCell id="mJKC-r3p6AU6EGSgcZ0A-36" style="edgeStyle=orthogonalEdgeStyle;rounded=0;orthogonalLoop=1;jettySize=auto;html=1;" parent="mJKC-r3p6AU6EGSgcZ0A-1" source="mJKC-r3p6AU6EGSgcZ0A-17" edge="1">
          <mxGeometry relative="1" as="geometry">
            <mxPoint x="380" y="870" as="targetPoint" />
          </mxGeometry>
        </mxCell>
        <mxCell id="mJKC-r3p6AU6EGSgcZ0A-39" style="edgeStyle=orthogonalEdgeStyle;rounded=0;orthogonalLoop=1;jettySize=auto;html=1;entryX=0.515;entryY=1;entryDx=0;entryDy=0;entryPerimeter=0;" parent="mJKC-r3p6AU6EGSgcZ0A-1" source="mJKC-r3p6AU6EGSgcZ0A-17" target="mJKC-r3p6AU6EGSgcZ0A-6" edge="1">
          <mxGeometry relative="1" as="geometry" />
        </mxCell>
        <mxCell id="mJKC-r3p6AU6EGSgcZ0A-42" style="edgeStyle=orthogonalEdgeStyle;rounded=0;orthogonalLoop=1;jettySize=auto;html=1;entryX=0.481;entryY=0.001;entryDx=0;entryDy=0;entryPerimeter=0;" parent="mJKC-r3p6AU6EGSgcZ0A-1" source="mJKC-r3p6AU6EGSgcZ0A-7" target="mJKC-r3p6AU6EGSgcZ0A-6" edge="1">
          <mxGeometry relative="1" as="geometry" />
        </mxCell>
        <mxCell id="mJKC-r3p6AU6EGSgcZ0A-21" value="" style="points=[[0,0],[0.25,0],[0.5,0],[0.75,0],[1,0],[1,0.25],[1,0.5],[1,0.75],[1,1],[0.75,1],[0.5,1],[0.25,1],[0,1],[0,0.75],[0,0.5],[0,0.25]];outlineConnect=0;gradientColor=none;html=1;whiteSpace=wrap;fontSize=12;fontStyle=0;container=1;pointerEvents=0;collapsible=0;recursiveResize=0;shape=mxgraph.aws4.group;grIcon=mxgraph.aws4.group_aws_cloud;strokeColor=#232F3E;fillColor=none;verticalAlign=top;align=left;spacingLeft=30;fontColor=#232F3E;dashed=0;" parent="1" vertex="1">
          <mxGeometry x="190" y="20" width="712" height="160" as="geometry" />
        </mxCell>
        <mxCell id="mJKC-r3p6AU6EGSgcZ0A-22" value="&lt;b&gt;ETL and data processing&amp;nbsp;&lt;/b&gt;" style="fillColor=none;strokeColor=#147EBA;dashed=1;verticalAlign=top;fontStyle=0;fontColor=#147EBA;whiteSpace=wrap;html=1;" parent="mJKC-r3p6AU6EGSgcZ0A-21" vertex="1">
          <mxGeometry x="510" y="30" width="190" height="120" as="geometry" />
        </mxCell>
        <mxCell id="mJKC-r3p6AU6EGSgcZ0A-23" value="&lt;font style=&quot;font-size: 14px;&quot;&gt;AWS EMR/Spark&lt;/font&gt;" style="outlineConnect=0;dashed=0;verticalLabelPosition=bottom;verticalAlign=top;align=center;html=1;shape=mxgraph.aws3.emr;fillColor=#F58534;gradientColor=none;" parent="mJKC-r3p6AU6EGSgcZ0A-21" vertex="1">
          <mxGeometry x="550" y="50" width="51.5" height="71" as="geometry" />
        </mxCell>
        <mxCell id="mJKC-r3p6AU6EGSgcZ0A-24" value="&lt;font style=&quot;font-size: 14px;&quot;&gt;&amp;nbsp; &amp;nbsp; &amp;nbsp; &amp;nbsp; AWS S3 (Unstructured data)&amp;nbsp;&lt;/font&gt;&lt;div&gt;&lt;br&gt;&lt;/div&gt;" style="sketch=0;outlineConnect=0;fontColor=#232F3E;gradientColor=none;fillColor=#7AA116;strokeColor=none;dashed=0;verticalLabelPosition=bottom;verticalAlign=top;align=center;html=1;fontSize=12;fontStyle=0;aspect=fixed;pointerEvents=1;shape=mxgraph.aws4.bucket_with_objects;" parent="mJKC-r3p6AU6EGSgcZ0A-21" vertex="1">
          <mxGeometry x="240" y="63.80000000000001" width="55" height="57.2" as="geometry" />
        </mxCell>
        <mxCell id="mJKC-r3p6AU6EGSgcZ0A-25" value="&lt;font style=&quot;font-size: 14px;&quot;&gt;AWS RDS (Structured data)&amp;nbsp;&lt;/font&gt;" style="sketch=0;points=[[0,0,0],[0.25,0,0],[0.5,0,0],[0.75,0,0],[1,0,0],[0,1,0],[0.25,1,0],[0.5,1,0],[0.75,1,0],[1,1,0],[0,0.25,0],[0,0.5,0],[0,0.75,0],[1,0.25,0],[1,0.5,0],[1,0.75,0]];outlineConnect=0;fontColor=#232F3E;fillColor=#C925D1;strokeColor=#ffffff;dashed=0;verticalLabelPosition=bottom;verticalAlign=top;align=center;html=1;fontSize=12;fontStyle=0;aspect=fixed;shape=mxgraph.aws4.resourceIcon;resIcon=mxgraph.aws4.rds;" parent="mJKC-r3p6AU6EGSgcZ0A-21" vertex="1">
          <mxGeometry x="70" y="63" width="58" height="58" as="geometry" />
        </mxCell>
        <mxCell id="mJKC-r3p6AU6EGSgcZ0A-26" value="&lt;b&gt;Data Storage&lt;/b&gt;" style="fillColor=none;strokeColor=#147EBA;dashed=1;verticalAlign=top;fontStyle=0;fontColor=#147EBA;whiteSpace=wrap;html=1;" parent="mJKC-r3p6AU6EGSgcZ0A-21" vertex="1">
          <mxGeometry x="10" y="30" width="370" height="120" as="geometry" />
        </mxCell>
      </root>
    </mxGraphModel>
  </diagram>
</mxfile>
